<?xml version="1.0" encoding="UTF-8"?>
<svg width="175px" height="49px" viewBox="0 0 175 49" version="1.1" xmlns="http://www.w3.org/2000/svg" xmlns:xlink="http://www.w3.org/1999/xlink">
    <!-- Generator: Sketch 48.2 (47327) - http://www.bohemiancoding.com/sketch -->
    <title>Group 2</title>
    <desc>Created with Sketch.</desc>
    <defs></defs>
    <g id="Postural-Analysis-List" stroke="none" stroke-width="1" fill="none" fill-rule="evenodd" transform="translate(-436.000000, -36.000000)">
        <g id="Header" transform="translate(436.000000, 25.000000)">
            <g id="Group-2" transform="translate(0.000000, 11.000000)">
                <g id="pilates-planner-logo-2">
                    <path d="M27.6678107,35 C21.6242722,35 15.0216843,36.1304353 7.86004702,38.391306 C4.64204261,39.4096695 -0.294754754,42.266529 0.0137950809,44.4703921 C0.151979976,45.4654343 1.57547369,46.1709037 3.61038825,46.6684248 C8.35789123,47.8344899 43.8449082,51.0314517 38.4519113,41.1820885 C36.4908216,37.5038009 32.8961214,35.4431047 27.6678107,35 Z" id="Shape" fill="#4C527C"></path>
                    <path d="M10.7220375,13.6233881 C15.4051804,12.2435444 21.9074423,13.1543708 30.2288231,16.3558673 C30.8553875,16.5968541 31.2585845,16.719291 31.7905017,17.3062104 C32.6498982,18.2533144 32.9117554,19.5897545 32.5760734,21.3155309 C32.1709834,23.400844 31.4705942,24.0208019 30.1531054,24.6854591 C25.386673,27.0817228 10.7144658,26.7221861 7.15762441,22.7944901 C6.34176565,21.89662 5.94235451,21.2397367 6.0067146,19.5975283 C6.11398141,16.6538617 7.68575572,14.6624817 10.7220375,13.6233881 Z" id="Shape" fill="#927792"></path>
                    <path d="M25.5533794,7.07093563 C19.4858636,6.97635479 15.1100086,6.97635479 12.4258143,7.07093563 C11.2067585,7.11563479 10.2640725,7.15839051 9.11126977,7.44796334 C7.25113702,7.91827627 6.62015576,8.56025989 7.21832599,9.37391421 C7.63855951,9.93945578 8.09097307,10.1512909 8.77621872,10.3883908 C10.8635047,11.1074643 15.0753046,11.9496225 21.4116184,12.9148652 C30.4598896,14.0239227 34.8048266,12.978351 34.4464292,9.77815011 C33.8545688,8.02127869 30.8902189,7.11887386 25.5533794,7.07093563 Z" id="Shape" fill="#EA6373"></path>
                    <path d="M24.8742675,7.16754861 C27.4694934,6.71861354 28.1547391,3.41281897 25.8377759,2.20205471 C25.059145,1.79393192 23.9050803,1.41819983 22.3755818,1.07485844 C16.9769061,-0.689786753 14.1412763,-0.28555085 14.0466292,2.31671777 C13.2648434,8.76894468 22.5402679,7.66506972 24.8742675,7.16754861 Z" id="Shape" fill="#FFA4B3"></path>
                    <path d="M5.57914648,27.8276995 C12.1842583,26.0008642 22.0811993,25.5435075 35.2699696,26.4556296 C36.2618721,26.5255935 36.8941153,26.5450279 37.8368013,26.8831868 C39.3511563,27.4312374 40.0849875,28.3686241 40.0382949,29.6953471 C39.9758278,31.3006301 39.091823,31.8778323 37.310563,32.5930189 C35.2434684,33.4209251 32.0412385,34.1017776 27.7038733,34.6355763 C15.3126634,36.5582881 6.96036446,36.7435628 2.64697658,35.1914006 C1.20266048,34.6725017 0.439804138,34.2585485 0.110431921,33.0400105 C-0.486476349,30.8555819 1.33642851,29.1181449 5.57914648,27.8276995 Z" id="Shape" fill="#4C8CB3"></path>
                    <path d="M56.520109,15.8478461 L56.520109,22.6727784 L53.13,22.6727784 L53.13,3.60329715 L53.211435,3.60329715 C53.7090933,3.60329715 54.6048784,3.60329715 55.5489212,3.57847921 C56.628689,3.57847921 57.768779,3.55055903 58.4353396,3.55055903 C60.8995024,3.55055903 62.6066213,4.17100742 63.7346469,5.12960018 C65.1069775,6.30224764 65.6287647,7.98366277 65.6287647,9.7085093 C65.6478515,11.4286756 64.9429334,13.0733249 63.6954374,14.2191691 C62.5553474,15.2584201 60.9206152,15.9191977 58.827434,15.9191977 C58.555984,15.9191977 58.1608734,15.9191977 57.7205212,15.9191977 C57.280169,15.9191977 56.8971229,15.8912775 56.5140767,15.8571528 L56.520109,15.8478461 Z M61.2342907,7.54624666 C60.6793263,7.06229692 59.8438635,6.82342429 58.7550473,6.82342429 C58.1518251,6.82342429 57.4641518,6.84513998 56.6980595,6.86685567 L56.5261412,6.86685567 L56.5261412,12.512936 C56.900139,12.5532652 57.2771529,12.5842876 57.6541668,12.6060033 C58.0311807,12.627719 58.3780334,12.6401279 58.7279023,12.6401279 C59.6152515,12.6874696 60.4896484,12.4056606 61.1920652,11.845954 C61.7823913,11.2920789 62.1000866,10.4950846 62.0576891,9.67438464 C62.0516569,8.72820084 61.7711585,8.01778744 61.2342907,7.54624666 Z" id="Shape" fill="#4C527C"></path>
                    <polygon id="Shape" fill="#4C527C" points="72.5115304 22.6665739 69.2812753 22.6665739 69.1998403 22.6665739 69.1998403 22.5828134 69.1998403 3.71497786 69.1998403 3.63121732 69.2812753 3.63121732 72.5115304 3.63121732 72.5929654 3.63121732 72.5929654 3.71497786 72.5929654 22.5828134 72.5929654 22.6665739"></polygon>
                    <polygon id="Shape" fill="#4C527C" points="89.754638 22.6665739 78.2572222 22.6665739 78.1757872 22.6665739 78.1757872 22.5828134 78.1757872 3.71497786 78.1757872 3.63121732 78.2572222 3.63121732 81.4844611 3.63121732 81.5689123 3.63121732 81.5689123 3.71497786 81.5689123 19.3937087 89.754638 19.3937087 89.836073 19.3937087 89.836073 19.4805714 89.836073 22.5828134 89.836073 22.6665739"></polygon>
                    <path d="M94.8488498,22.6665739 L91.4708052,22.6665739 L91.519063,22.551791 L99.2855493,3.6001949 L99.3066621,3.55055903 L102.253403,3.55055903 L102.274515,3.6001949 L110.041002,22.5548932 L110.086243,22.6696761 L106.475958,22.6696761 L106.457862,22.616938 L104.560728,17.8394854 L96.8244026,17.8394854 L94.9302848,22.616938 L94.909172,22.6696761 L94.8488498,22.6665739 Z M103.254752,14.5635179 L100.700105,8.14497936 L98.1183143,14.5635179 L103.254752,14.5635179 Z" id="Shape" fill="#4C527C"></path>
                    <polygon id="Shape" fill="#4C527C" points="114.516911 6.90408258 108.641526 6.90408258 108.560091 6.90408258 108.560091 6.82032204 108.560091 3.71497786 108.560091 3.63121732 108.641526 3.63121732 123.78542 3.63121732 123.866855 3.63121732 123.866855 3.71497786 123.866855 6.82032204 123.866855 6.90408258 123.78542 6.90408258 117.910036 6.90408258 117.910036 22.5828134 117.910036 22.6665739 117.825585 22.6665739 114.598346 22.6665739 114.516911 22.6665739 114.516911 22.5828134"></polygon>
                    <polygon id="Shape" fill="#4C527C" points="137.746999 22.6665739 126.855822 22.6665739 126.774387 22.6665739 126.774387 22.5828134 126.774387 3.71497786 126.774387 3.63121732 126.855822 3.63121732 137.484597 3.63121732 137.566032 3.63121732 137.566032 3.71497786 137.566032 6.82032204 137.566032 6.90408258 137.484597 6.90408258 130.164495 6.90408258 130.164495 11.4054356 136.697392 11.4054356 136.778827 11.4054356 136.778827 11.4891962 136.778827 14.5945404 136.778827 14.6783009 136.697392 14.6783009 130.164495 14.6783009 130.164495 19.3937087 137.746999 19.3937087 137.828434 19.3937087 137.828434 19.4805714 137.828434 22.5828134 137.828434 22.6665739"></polygon>
                    <path d="M148.810095,19.1052002 C149.264776,18.7287339 149.520653,18.1540958 149.500784,17.5540792 C149.500784,15.9781403 147.92939,15.2460112 146.164965,14.4270193 C143.839544,13.3443369 141.18235,12.1065423 141.18235,8.5917022 C141.167882,7.13046924 141.770971,5.73476912 142.835179,4.76663788 C143.827479,3.86078323 145.248067,3.29617519 146.985348,3.29617519 C148.022787,3.28670661 149.053485,3.46847356 150.028604,3.83286305 C150.889051,4.14841095 151.665068,4.66812968 152.293703,5.34985936 L152.338945,5.39949523 L152.299735,5.45533559 L150.568488,7.93712915 L150.514198,8.01468519 L150.444827,7.94643587 C150.044698,7.52529633 149.574906,7.1807477 149.057416,6.92890051 C148.486881,6.67450005 147.869413,6.55065538 147.247749,6.56593821 C146.60233,6.53630844 145.965671,6.72839494 145.438082,7.11193279 C145.004078,7.45824676 144.755609,7.99585366 144.768506,8.56067978 C144.768506,10.2327882 146.364029,10.9463038 148.14655,11.74358 C150.462924,12.7766266 153.089957,13.9523763 153.089957,17.5230568 C153.102347,19.0255761 152.455207,20.4536969 151.328548,21.4101659 C150.064734,22.4519726 148.483851,23.0013066 146.864703,22.9612869 C145.55911,22.9587704 144.269638,22.6645084 143.085516,22.0988636 C142.060038,21.590096 141.209495,20.8579669 140.781207,19.9459077 L140.760094,19.8962718 L140.793271,19.8559427 L142.618019,17.5913061 L142.684373,17.5106478 L142.744695,17.5913061 C143.236352,18.2353469 143.864621,18.7552857 144.581507,19.1114046 C145.304525,19.4817497 146.099293,19.6800193 146.906929,19.6915239 C147.587312,19.7212933 148.257652,19.5147763 148.810095,19.1052002 Z" id="Shape" fill="#4C527C"></path>
                    <path d="M56.520109,41.6119655 L56.520109,48.4368978 L53.13,48.4368978 L53.13,29.3798255 L53.211435,29.3798255 C53.7090933,29.3798255 54.6048784,29.3798255 55.5489212,29.3550075 C56.628689,29.3550075 57.768779,29.3270874 58.4353396,29.3270874 C60.8995024,29.3270874 62.6066213,29.9475358 63.7346469,30.9061285 C65.1069775,32.078776 65.6287647,33.7601911 65.6287647,35.4850376 C65.6482486,37.2052875 64.9432613,38.8500984 63.6954374,39.9956974 C62.5553474,41.0349485 60.9206152,41.695726 58.827434,41.695726 C58.555984,41.695726 58.1608734,41.695726 57.7205212,41.695726 C57.280169,41.695726 56.8971229,41.6678058 56.5140767,41.6336812 L56.520109,41.6119655 Z M61.2342907,33.310366 C60.6793263,32.8264163 59.8438635,32.5875437 58.7550473,32.5875437 C58.1518251,32.5875437 57.4641518,32.6092593 56.6980595,32.6340773 L56.5261412,32.6340773 L56.5261412,38.2801576 C56.900139,38.3204868 57.2771529,38.3515092 57.6541668,38.3732249 C58.0311807,38.3949406 58.3780334,38.4073495 58.7279023,38.4073495 C59.6152515,38.4546912 60.4896484,38.1728822 61.1920652,37.6131756 C61.7831121,37.0598191 62.1009539,36.2624572 62.0576891,35.4416062 C62.0516569,34.4923202 61.7711585,33.7819068 61.2342907,33.310366 Z" id="Shape" fill="#4C527C"></path>
                    <polygon id="Shape" fill="#4C527C" points="80.8148845 48.4337955 69.3204848 48.4337955 69.2390498 48.4337955 69.2390498 48.3469327 69.2390498 29.4790972 69.2390498 29.3953367 69.3204848 29.3953367 72.5477237 29.3953367 72.6291587 29.3953367 72.6291587 29.4790972 72.6291587 45.1609303 80.8148845 45.1609303 80.8963195 45.1609303 80.8963195 45.2446908 80.8963195 48.3469327 80.8963195 48.4337955"></polygon>
                    <path d="M86.1262562,48.4337955 L82.7482117,48.4337955 L82.7964695,48.3159103 L90.5629558,29.3798255 L90.5840686,29.3270874 L93.5277931,29.3270874 L93.5489058,29.3798255 L101.318408,48.3035014 L101.366666,48.4213865 L97.7473326,48.4213865 L97.7262198,48.3686484 L95.8290859,43.5880936 L88.0957768,43.5880936 L86.201659,48.3686484 L86.1805462,48.4213865 L86.1262562,48.4337955 Z M94.5321581,40.3276373 L91.9775119,33.912201 L89.3957208,40.3276373 L94.5321581,40.3276373 Z" id="Shape" fill="#4C527C"></path>
                    <polygon id="Shape" fill="#4C527C" points="119.82225 29.4790972 119.82225 48.3469327 119.82225 48.4337955 119.737799 48.4337955 117.168072 48.4337955 117.128863 48.4337955 117.104734 48.3996709 107.145535 35.5160601 107.145535 48.3469327 107.145535 48.4337955 107.0641 48.4337955 104.044973 48.4337955 103.963538 48.4337955 103.963538 48.3469327 103.963538 29.4790972 103.963538 29.3953367 104.044973 29.3953367 106.617716 29.3953367 106.656925 29.3953367 106.681054 29.4263591 116.640253 42.3658103 116.640253 29.4790972 116.640253 29.3953367 116.721688 29.3953367 119.737799 29.3953367 119.82225 29.3953367"></polygon>
                    <polygon id="Shape" fill="#4C527C" points="140.65453 29.4790972 140.65453 48.3469327 140.65453 48.4337955 140.573095 48.4337955 138.000352 48.4337955 137.961143 48.4337955 137.937014 48.3996709 127.977815 35.5160601 127.977815 48.3469327 127.977815 48.4337955 127.89638 48.4337955 124.877253 48.4337955 124.795818 48.4337955 124.795818 48.3469327 124.795818 29.4790972 124.795818 29.3953367 124.877253 29.3953367 127.449995 29.3953367 127.489205 29.3953367 127.513334 29.4263591 137.472533 42.3658103 137.472533 29.4790972 137.472533 29.3953367 137.553968 29.3953367 140.573095 29.3953367 140.65453 29.3953367"></polygon>
                    <polygon id="Shape" fill="#4C527C" points="156.386566 48.4337955 145.495389 48.4337955 145.413954 48.4337955 145.413954 48.3469327 145.413954 29.4790972 145.413954 29.3953367 145.495389 29.3953367 156.124164 29.3953367 156.205599 29.3953367 156.205599 29.4790972 156.205599 32.5844414 156.205599 32.6682019 156.124164 32.6682019 148.804063 32.6682019 148.804063 37.169555 155.336959 37.169555 155.418394 37.169555 155.418394 37.2533155 155.418394 40.3586597 155.418394 40.4424203 155.336959 40.4424203 148.804063 40.4424203 148.804063 45.1609303 156.386566 45.1609303 156.468001 45.1609303 156.468001 45.2446908 156.468001 48.3469327 156.468001 48.4337955"></polygon>
                    <path d="M163.727781,41.3606839 L163.727781,48.4337955 L160.334656,48.4337955 L160.334656,29.3798255 L160.416091,29.3798255 C161.019313,29.3798255 162.641981,29.361212 163.987166,29.3457008 L166.007961,29.3270874 C168.354495,29.3270874 169.974147,29.8854909 171.038834,30.8161635 C172.272424,31.8957437 172.755001,33.4685804 172.755001,35.2399605 C172.781302,36.4390929 172.453166,37.6182009 171.813975,38.6214042 C171.190269,39.5622139 170.299035,40.2816917 169.262345,40.6812929 L174.941682,48.3035014 L175.04423,48.44 L170.927238,48.44 L170.900093,48.4027731 L165.860171,41.3668884 L163.727781,41.3606839 Z M168.345447,33.2638324 C167.826676,32.8450297 167.027406,32.5875437 165.848107,32.5875437 C165.546496,32.5875437 165.208691,32.5875437 164.846758,32.5875437 L164.041456,32.6123616 L163.739845,32.6123616 L163.739845,38.0630007 L165.757623,38.0630007 C166.658334,38.0946174 167.54322,37.8138129 168.270044,37.2657245 C168.865267,36.7708685 169.200261,36.0174287 169.174877,35.2306538 C169.214578,34.4773517 168.907318,33.7487487 168.345447,33.2638324 Z" id="Shape" fill="#4C527C"></path>
                </g>
            </g>
        </g>
    </g>
</svg>